<mxfile host="app.diagrams.net" modified="2023-04-27T15:24:30.579Z" agent="Mozilla/5.0 (Macintosh; Intel Mac OS X 10_15_7) AppleWebKit/537.36 (KHTML, like Gecko) Chrome/112.0.0.0 Safari/537.36" version="21.1.7" etag="Iyub20kl61jehCZ-d2L3" type="github">
  <diagram name="Page-1" id="TzKGEhBiZRqSu31szFwv">
    <mxGraphModel>
      <root>
        <mxCell id="0" />
        <mxCell id="1" parent="0" />
      </root>
    </mxGraphModel>
  </diagram>
</mxfile>
